<?xml version="1.0" encoding="iso-8859-1"?>
<!-- Generator: Adobe Illustrator 18.0.0, SVG Export Plug-In . SVG Version: 6.00 Build 0)  -->
<!DOCTYPE svg PUBLIC "-//W3C//DTD SVG 1.1//EN" "http://www.w3.org/Graphics/SVG/1.1/DTD/svg11.dtd">
<svg version="1.1" id="Capa_1" xmlns="http://www.w3.org/2000/svg" xmlns:xlink="http://www.w3.org/1999/xlink" x="0px" y="0px"
	 viewBox="0 0 449.266 449.266" style="enable-background:new 0 0 449.266 449.266;" xml:space="preserve">
<g>
	<g>
		<path style="fill:#C1272D;" d="M426.73,114.751c7.58,20.56,9.12,41.86,5.51,63.55c-8.21,49.33-31.4,91.77-60.98,131.01
			c-15.98,21.21-33.29,41.45-50.45,61.73c-12.3,14.53-25.5,28.3-38,42.67c-3.83,4.41-7.1,5.36-12.66,2.84
			c-26.85-12.16-53.86-23.96-80.91-35.64c-6.19-2.67-9.06-6.02-8.06-13.32c1.53-11.15,1.92-22.46,2.64-33.72
			c0.25-3.94,0.04-7.91-1.25-11.94c-4.65,16.66-6.37,33.65-6.91,51.59c-6.92-3.42-13.25-6.56-19.35-9.57
			c1.29-21.63,11.28-41.93,7.58-63.51c-0.81-0.11-1.63-0.21-2.44-0.32c-3.63,19.64-7.27,39.27-11.05,59.72
			c-6.12-4.01-12.12-7.73-17.81-11.87c-1.05-0.76-1.37-3.34-1.12-4.94c2.9-18.52,6.01-37.01,8.97-55.53
			c0.33-2.04,0.04-4.18,0.04-6.27c-0.79-0.05-1.59-0.1-2.39-0.15c-7.05,19.93-8.7,41.06-12.62,62.54
			c-5.71-3.9-11.22-7.17-16.04-11.25c-1.37-1.16-1.36-4.77-0.96-7.08c2.03-11.59,4.64-23.08,6.55-34.69
			c1.37-8.25,4.23-16.51,0.77-25.16c-5.97,19.9-10.05,40.2-13.54,61.55c-4.92-4.28-9.86-8.46-14.58-12.88
			c-0.57-0.52-0.13-2.33,0.12-3.49c4.23-19.61,8.55-39.21,12.72-58.83c0.63-2.98,0.58-6.1,0.88-9.6
			c-5.84,3.3-14.68,36.95-18.44,68.04c-2.41-1.85-4.78-3.48-6.94-5.36c-12.09-10.5-12.36-11.52-7.81-29.37
			c4.03-15.81,8.15-31.6,12.17-47.42c0.41-1.61,0.4-3.33,0.58-5.01c-0.66-0.27-1.33-0.54-2-0.81c-1.38,2.48-3.23,4.82-4.07,7.48
			c-3.57,11.36-7.08,22.74-10.15,34.24c-2.08,7.8-3.41,15.8-5.23,24.46c-4.31-5.46-8.82-10.5-12.41-16.13
			c-1.17-1.83-0.42-5.32,0.26-7.84c4.64-17.2,9.6-34.32,14.23-51.52c1.3-4.84,1.88-9.89,2.78-14.84c-0.94-0.23-1.89-0.47-2.84-0.71
			c-8.06,21.69-14.43,43.91-20.01,67.32c-3.54-6.18-6.86-11.99-9.71-16.97c1.27-1.94,2.56-3.15,2.95-4.59
			c5.72-21.3,11.32-42.64,16.92-63.97c0.12-0.46-0.11-1.02-0.19-1.57c-8.07,2.87-21.75,46.77-21.75,66.77
			c-3.22-8.24-6.72-16.39-9.47-24.78c-0.76-2.31,0.52-5.42,1.24-8.06c4.77-17.72,9.69-35.4,14.42-53.14
			c0.73-2.72,0.72-5.64,0.06-8.69c-8.63,17.99-12.72,37.38-19.72,56.25c-0.74-9.96-1.9-19.92-2.15-29.89
			c-0.5-19.7,2.17-38.74,11.69-56.55c17.56-32.85,44.26-54.4,80.29-62.74c13.14-3.05,27.48-1.45,41.26-1.06
			c17.24,0.48,32.81,7.41,47.94,14.91c6.19,3.06,11.51,7.87,17.24,11.87c7.18,5,9.22,4.91,14.98-1.49
			c13.32-14.79,29.05-26.45,45.9-36.93c11.57-7.19,24.25-10.27,37.23-12.33c14.78-2.35,29.48-2.41,44.16,2.5
			c15.34,5.14,27.39,13.8,38.05,26.05C407.16,76.761,419.22,94.361,426.73,114.751z M349.27,169.571c4.38-4.16,7.22-9.66,5.98-16.32
			c-3.2-17.19-24.95-27.28-41.54-19.45c-14.35,6.76-17.07,17.26-14.99,27.03c2.62,12.38,13.06,20.24,24.49,19.7
			C334.29,180.821,342.38,176.101,349.27,169.571z M242.91,200.371c17.06-5.54,29.97-20.36,22.77-40.17
			c-1.8-4.95-6.59-7.91-10.84-6.16c-4.38,1.8-6.16,4.92-4.77,10.21c1.68,6.37,1.54,12.76-4.71,17.47
			c-6.32,4.76-12.82,6.5-20.36,3.25c-6.87-2.95-10.08-8.76-12.45-15.31c-1.36-3.72-3.45-6.74-7.9-6.11
			c-5.05,0.71-5.53,4.57-5.46,8.78c0.27,16.08,15.53,29.31,34,29.66C236.44,201.471,239.82,201.381,242.91,200.371z M257.43,380.441
			c0.39-5.46,0.68-9.48,1.05-14.76C253.67,370.701,253.25,375.151,257.43,380.441z M240.86,361.741c-0.53-0.07-1.06-0.14-1.6-0.2
			c-4.41,8.47-4.59,17.07,0.2,20.37C239.94,374.931,240.4,368.331,240.86,361.741z M222.05,387.441c2.99-7.39,2.09-34.89-1.05-37.84
			C217.01,372.421,217.18,381.701,222.05,387.441z M203.57,383.921c1.05-16.37,2.1-32.74,3.14-49.11c-0.87-0.36-1.73-0.73-2.6-1.09
			c-0.36,0.85-0.95,1.68-1.04,2.55c-1.54,14.08-3.15,28.15-4.37,42.25c-0.17,1.97,1.59,4.11,2.46,6.17
			C201.97,384.441,202.77,384.181,203.57,383.921z M150.29,214.661c18.22-4.17,22.12-23.39,13.57-34.83
			c-6.37-8.51-14.73-12.24-24.96-12.7c-0.93,0-1.88-0.13-2.78,0.02c-8.93,1.48-17.24,4.09-20.96,13.52
			c-3.47,8.83-1.86,17.06,4.21,24.16C127.56,214.431,138.58,217.341,150.29,214.661z"/>
	</g>
	<g>
		<path d="M437.9,102.721c9.34,20.8,12.65,42.71,10.93,65.64c-3.17,42.2-20.91,78.96-41.39,114.8
			c-13.32,23.33-30.34,43.97-47.65,64.33c-19.6,23.06-39.64,45.73-59.55,68.52c-3.76,4.31-7.26,9.08-11.78,12.42
			c-7.27,5.37-15.82,4.84-23.73,1.5c-21.9-9.25-43.8-18.55-65.37-28.55c-34.7-16.08-67.66-35.39-98.01-58.64
			c-28.13-21.56-55.43-44.3-74.03-75.38c-11.47-19.17-20.81-39.22-24.84-61.38c-1.13-6.22-1.67-12.54-2.48-18.82
			c0-8.16,0-16.32,0-24.49c1.47-7.67,2.66-15.41,4.47-23c4.66-19.58,14.72-36.45,27.52-51.67c16.71-19.87,38.46-32.48,62.67-40.64
			c8.36-2.81,17.7-3.2,26.64-3.65c18.84-0.96,37.62-0.29,55.57,6.58c14.91,5.71,30.12,10.91,41.04,23.65
			c16.92-20,36.44-36.32,60.02-46.45c12.03-5.16,25.64-6.88,38.68-9.39c13.59-2.61,27.11-1.13,40.26,3.2
			c16.37,5.38,31,12.73,43.19,26.06C415.42,64.171,428.63,82.091,437.9,102.721z M432.24,178.301c3.61-21.69,2.07-42.99-5.51-63.55
			c-7.51-20.39-19.57-37.99-33.88-54.44c-10.66-12.25-22.71-20.91-38.05-26.05c-14.68-4.91-29.38-4.85-44.16-2.5
			c-12.98,2.06-25.66,5.14-37.23,12.33c-16.85,10.48-32.58,22.14-45.9,36.93c-5.76,6.4-7.8,6.49-14.98,1.49
			c-5.73-4-11.05-8.81-17.24-11.87c-15.13-7.5-30.7-14.43-47.94-14.91c-13.78-0.39-28.12-1.99-41.26,1.06
			c-36.03,8.34-62.73,29.89-80.29,62.74c-9.52,17.81-12.19,36.85-11.69,56.55c0.25,9.97,1.41,19.93,2.15,29.89
			c7-18.87,11.09-38.26,19.72-56.25c0.66,3.05,0.67,5.97-0.06,8.69c-4.73,17.74-9.65,35.42-14.42,53.14c-0.72,2.64-2,5.75-1.24,8.06
			c2.75,8.39,6.25,16.54,9.47,24.78c0-20,13.68-63.9,21.75-66.77c0.08,0.55,0.31,1.11,0.19,1.57c-5.6,21.33-11.2,42.67-16.92,63.97
			c-0.39,1.44-1.68,2.65-2.95,4.59c2.85,4.98,6.17,10.79,9.71,16.97c5.58-23.41,11.95-45.63,20.01-67.32
			c0.95,0.24,1.9,0.48,2.84,0.71c-0.9,4.95-1.48,10-2.78,14.84c-4.63,17.2-9.59,34.32-14.23,51.52c-0.68,2.52-1.43,6.01-0.26,7.84
			c3.59,5.63,8.1,10.67,12.41,16.13c1.82-8.66,3.15-16.66,5.23-24.46c3.07-11.5,6.58-22.88,10.15-34.24c0.84-2.66,2.69-5,4.07-7.48
			c0.67,0.27,1.34,0.54,2,0.81c-0.18,1.68-0.17,3.4-0.58,5.01c-4.02,15.82-8.14,31.61-12.17,47.42
			c-4.55,17.85-4.28,18.87,7.81,29.37c2.16,1.88,4.53,3.51,6.94,5.36c3.76-31.09,12.6-64.74,18.44-68.04
			c-0.3,3.5-0.25,6.62-0.88,9.6c-4.17,19.62-8.49,39.22-12.72,58.83c-0.25,1.16-0.69,2.97-0.12,3.49c4.72,4.42,9.66,8.6,14.58,12.88
			c3.49-21.35,7.57-41.65,13.54-61.55c3.46,8.65,0.6,16.91-0.77,25.16c-1.91,11.61-4.52,23.1-6.55,34.69
			c-0.4,2.31-0.41,5.92,0.96,7.08c4.82,4.08,10.33,7.35,16.04,11.25c3.92-21.48,5.57-42.61,12.62-62.54c0.8,0.05,1.6,0.1,2.39,0.15
			c0,2.09,0.29,4.23-0.04,6.27c-2.96,18.52-6.07,37.01-8.97,55.53c-0.25,1.6,0.07,4.18,1.12,4.94c5.69,4.14,11.69,7.86,17.81,11.87
			c3.78-20.45,7.42-40.08,11.05-59.72c0.81,0.11,1.63,0.21,2.44,0.32c3.7,21.58-6.29,41.88-7.58,63.51
			c6.1,3.01,12.43,6.15,19.35,9.57c0.54-17.94,2.26-34.93,6.91-51.59c1.29,4.03,1.5,8,1.25,11.94c-0.72,11.26-1.11,22.57-2.64,33.72
			c-1,7.3,1.87,10.65,8.06,13.32c27.05,11.68,54.06,23.48,80.91,35.64c5.56,2.52,8.83,1.57,12.66-2.84
			c12.5-14.37,25.7-28.14,38-42.67c17.16-20.28,34.47-40.52,50.45-61.73C400.84,270.071,424.03,227.631,432.24,178.301z"/>
		<path d="M355.25,153.251c1.24,6.66-1.6,12.16-5.98,16.32c-6.89,6.53-14.98,11.25-26.06,10.96c-11.43,0.54-21.87-7.32-24.49-19.7
			c-2.08-9.77,0.64-20.27,14.99-27.03C330.3,125.971,352.05,136.061,355.25,153.251z"/>
		<path d="M265.68,160.201c7.2,19.81-5.71,34.63-22.77,40.17c-3.09,1.01-6.47,1.1-9.72,1.62c-18.47-0.35-33.73-13.58-34-29.66
			c-0.07-4.21,0.41-8.07,5.46-8.78c4.45-0.63,6.54,2.39,7.9,6.11c2.37,6.55,5.58,12.36,12.45,15.31c7.54,3.25,14.04,1.51,20.36-3.25
			c6.25-4.71,6.39-11.1,4.71-17.47c-1.39-5.29,0.39-8.41,4.77-10.21C259.09,152.291,263.88,155.251,265.68,160.201z"/>
		<path d="M258.48,365.681c-0.37,5.28-0.66,9.3-1.05,14.76C253.25,375.151,253.67,370.701,258.48,365.681z"/>
		<path d="M239.26,361.541c0.54,0.06,1.07,0.13,1.6,0.2c-0.46,6.59-0.92,13.19-1.4,20.17
			C234.67,378.611,234.85,370.011,239.26,361.541z"/>
		<path d="M221,349.601c3.14,2.95,4.04,30.45,1.05,37.84C217.18,381.701,217.01,372.421,221,349.601z"/>
		<path d="M206.71,334.811c-1.04,16.37-2.09,32.74-3.14,49.11c-0.8,0.26-1.6,0.52-2.41,0.77c-0.87-2.06-2.63-4.2-2.46-6.17
			c1.22-14.1,2.83-28.17,4.37-42.25c0.09-0.87,0.68-1.7,1.04-2.55C204.98,334.081,205.84,334.451,206.71,334.811z"/>
		<path d="M163.86,179.831c8.55,11.44,4.65,30.66-13.57,34.83c-11.71,2.68-22.73-0.23-30.92-9.83c-6.07-7.1-7.68-15.33-4.21-24.16
			c3.72-9.43,12.03-12.04,20.96-13.52c0.9-0.15,1.85-0.02,2.78-0.02C149.13,167.591,157.49,171.321,163.86,179.831z"/>
	</g>
</g>
<g>
</g>
<g>
</g>
<g>
</g>
<g>
</g>
<g>
</g>
<g>
</g>
<g>
</g>
<g>
</g>
<g>
</g>
<g>
</g>
<g>
</g>
<g>
</g>
<g>
</g>
<g>
</g>
<g>
</g>
</svg>
